<?xml version="1.0" encoding="UTF-8"?>
<svg width="150px" height="150px" viewBox="0 0 150 150" version="1.1" xmlns="http://www.w3.org/2000/svg"
    xmlns:xlink="http://www.w3.org/1999/xlink">
    <title>EmptyState-v3</title>
    <desc>Created with Sketch.</desc>
    <g id="Page-1" stroke="none" stroke-width="1" fill="none" fill-rule="evenodd">
        <g id="EmptyState-v3" fill-rule="nonzero">
            <circle id="Oval" fill="#F4F4F9" cx="75" cy="75" r="74.9257426"></circle>
            <path
                d="M62.2277228,48.3415842 C62.2277228,47.970297 62.2277228,47.5990099 62.2277228,47.3019802 C62.2277228,44.9257426 62.1534653,42.549505 62.3019802,40.1732673 C62.8217822,34.1584158 67.7970297,29.3316832 73.8118812,28.960396 C79.9009901,28.5891089 85.3960396,32.6732673 86.7326733,38.6138614 C86.9554455,39.5792079 87.029703,40.5445545 87.029703,41.509901 C87.1039604,43.5148515 87.029703,45.5940594 87.029703,47.5990099 C87.029703,47.8217822 87.029703,48.0445545 87.029703,48.3415842 C87.3267327,48.3415842 87.549505,48.3415842 87.7722772,48.3415842 C90.6683168,48.3415842 93.490099,48.3415842 96.3861386,48.3415842 C98.7623762,48.3415842 100.247525,49.6039604 100.618812,51.980198 C101.658416,59.480198 102.69802,66.980198 103.737624,74.480198 C105,83.7623762 106.336634,92.970297 107.59901,102.252475 C107.89604,104.183168 108.044554,106.039604 108.415842,107.970297 C108.712871,109.529703 107.821782,111.237624 105.891089,111.831683 C105.371287,111.980198 104.851485,112.054455 104.331683,112.054455 C84.5792079,112.054455 64.7524752,112.054455 45,112.054455 C43.8861386,112.054455 42.8465347,111.757426 41.9554455,110.940594 C41.1386139,110.19802 40.7673267,109.232673 40.9158416,108.044554 C42.4009901,97.5742574 43.8118812,87.1039604 45.2227723,76.6336634 C46.3366337,68.3910891 47.5247525,60.1485149 48.6386139,51.9059406 C48.9356436,49.6039604 50.4950495,48.2673267 52.7970297,48.2673267 C55.6188119,48.2673267 58.5148515,48.2673267 61.3366337,48.2673267 C61.6336634,48.3415842 61.8564356,48.3415842 62.2277228,48.3415842 Z M62.2277228,51.3118812 C62.1534653,51.2376238 62.0792079,51.2376238 62.0792079,51.2376238 C58.8861386,51.2376238 55.6930693,51.2376238 52.5742574,51.2376238 C51.980198,51.2376238 51.6831683,51.6089109 51.6089109,52.1287129 C51.5346535,52.7227723 51.460396,53.3910891 51.3118812,53.9851485 C50.4207921,60.6683168 49.4554455,67.2772277 48.5643564,73.960396 C47.7475248,80.049505 46.8564356,86.0643564 46.039604,92.1534653 C45.2970297,97.5 44.5544554,102.920792 43.8118812,108.267327 C43.7376238,108.861386 44.0346535,109.084158 44.480198,109.232673 C44.7029703,109.306931 45,109.232673 45.2227723,109.232673 C64.9009901,109.232673 84.5792079,109.232673 104.183168,109.232673 C104.480198,109.232673 104.70297,109.232673 105,109.158416 C105.445545,109.009901 105.668317,108.787129 105.594059,108.267327 C104.70297,102.029703 103.886139,95.7920792 102.99505,89.5544554 C101.881188,81.7574257 100.841584,73.8861386 99.7277228,66.0891089 C99.1336634,61.5594059 98.4653465,57.029703 97.8712871,52.5 C97.7227723,51.3861386 97.4257426,51.1633663 96.3861386,51.1633663 C93.5643564,51.1633663 90.6683168,51.1633663 87.8465347,51.1633663 C87.6237624,51.1633663 87.4009901,51.1633663 87.1782178,51.1633663 C87.1782178,51.3861386 87.1782178,51.5346535 87.1782178,51.6831683 C87.1782178,54.1336634 87.1782178,56.5841584 87.1782178,59.0346535 C87.1782178,59.3316832 87.3267327,59.5544554 87.4752475,59.8514851 C87.9950495,60.7425743 87.8465347,61.8564356 87.1039604,62.450495 C86.3613861,63.1188119 85.2475248,63.1188119 84.5049505,62.450495 C83.7623762,61.7821782 83.6138614,60.7425743 84.1336634,59.8514851 C84.2821782,59.5544554 84.3564356,59.2574257 84.4306931,58.960396 C84.4306931,56.5841584 84.4306931,54.2821782 84.4306931,51.9059406 C84.4306931,51.6831683 84.4306931,51.460396 84.4306931,51.3118812 C78.0445545,51.3118812 71.7326733,51.3118812 65.3465347,51.3118812 C65.3465347,53.9851485 65.3465347,56.6584158 65.3465347,59.3316832 C65.3465347,59.480198 65.4950495,59.7029703 65.5693069,59.8514851 C66.0891089,60.7425743 65.9405941,61.8564356 65.1980198,62.5247525 C64.4554455,63.1930693 63.3415842,63.1930693 62.5990099,62.5247525 C61.8564356,61.8564356 61.7079208,60.8168317 62.2277228,59.9257426 C62.3019802,59.7772277 62.450495,59.5544554 62.450495,59.3316832 C62.2277228,56.5841584 62.2277228,53.9851485 62.2277228,51.3118812 Z M84.1336634,48.2673267 C84.1336634,48.1188119 84.1336634,47.970297 84.1336634,47.8217822 C84.1336634,45.5940594 84.1336634,43.3663366 84.1336634,41.1386139 C84.0594059,35.9405941 79.6782178,31.7821782 74.480198,31.7821782 C69.3564356,31.7821782 65.049505,36.0891089 65.049505,41.2128713 C65.049505,43.3663366 65.049505,45.519802 65.049505,47.7475248 C65.049505,47.8960396 65.049505,48.1188119 65.1237624,48.2673267 C71.509901,48.2673267 77.8217822,48.2673267 84.1336634,48.2673267 Z"
                id="Shape" stroke="#C3C8D2" stroke-width="2" fill="#C3C8D2"></path>
        </g>
    </g>
</svg>